<mxfile host="app.diagrams.net" modified="2023-02-24T05:00:17.831Z" agent="5.0 (Macintosh; Intel Mac OS X 10_15_7) AppleWebKit/537.36 (KHTML, like Gecko) Chrome/110.0.0.0 Safari/537.36" etag="1FGDZb0C6J8PQjGkdjYJ" version="20.8.23" type="github">
  <diagram name="Page-1" id="8kLWx7mdblNUVvPbbAvW">
    <mxGraphModel dx="1059" dy="1705" grid="1" gridSize="10" guides="1" tooltips="1" connect="1" arrows="1" fold="1" page="1" pageScale="1" pageWidth="850" pageHeight="1100" math="0" shadow="0">
      <root>
        <mxCell id="0" />
        <mxCell id="1" parent="0" />
        <mxCell id="D5WEuP7RKEWB0JZD9iPH-6" value="" style="group" parent="1" vertex="1" connectable="0">
          <mxGeometry x="160" y="403" width="430" height="70" as="geometry" />
        </mxCell>
        <mxCell id="D5WEuP7RKEWB0JZD9iPH-3" value="" style="fontColor=#0066CC;verticalAlign=top;verticalLabelPosition=bottom;labelPosition=center;align=center;html=1;outlineConnect=0;fillColor=#CCCCCC;strokeColor=#6881B3;gradientColor=none;gradientDirection=north;strokeWidth=2;shape=mxgraph.networks.pc;" parent="D5WEuP7RKEWB0JZD9iPH-6" vertex="1">
          <mxGeometry width="100" height="70" as="geometry" />
        </mxCell>
        <mxCell id="D5WEuP7RKEWB0JZD9iPH-4" value="" style="fontColor=#0066CC;verticalAlign=top;verticalLabelPosition=bottom;labelPosition=center;align=center;html=1;outlineConnect=0;fillColor=#CCCCCC;strokeColor=#6881B3;gradientColor=none;gradientDirection=north;strokeWidth=2;shape=mxgraph.networks.pc;" parent="D5WEuP7RKEWB0JZD9iPH-6" vertex="1">
          <mxGeometry x="330" width="100" height="70" as="geometry" />
        </mxCell>
        <mxCell id="D5WEuP7RKEWB0JZD9iPH-5" value="" style="fontColor=#0066CC;verticalAlign=top;verticalLabelPosition=bottom;labelPosition=center;align=center;html=1;outlineConnect=0;fillColor=#CCCCCC;strokeColor=#6881B3;gradientColor=none;gradientDirection=north;strokeWidth=2;shape=mxgraph.networks.pc;" parent="D5WEuP7RKEWB0JZD9iPH-6" vertex="1">
          <mxGeometry x="165" width="100" height="70" as="geometry" />
        </mxCell>
        <mxCell id="D5WEuP7RKEWB0JZD9iPH-7" value="" style="group" parent="1" vertex="1" connectable="0">
          <mxGeometry x="260" y="100" width="240" height="170" as="geometry" />
        </mxCell>
        <mxCell id="D5WEuP7RKEWB0JZD9iPH-1" value="" style="fontColor=#0066CC;verticalAlign=top;verticalLabelPosition=bottom;labelPosition=center;align=center;html=1;outlineConnect=0;fillColor=#CCCCCC;strokeColor=#6881B3;gradientColor=none;gradientDirection=north;strokeWidth=2;shape=mxgraph.networks.desktop_pc;" parent="D5WEuP7RKEWB0JZD9iPH-7" vertex="1">
          <mxGeometry x="92.44444444444444" y="56.66666666666667" width="53.33333333333334" height="113.33333333333334" as="geometry" />
        </mxCell>
        <mxCell id="D5WEuP7RKEWB0JZD9iPH-2" value="Control Node" style="text;strokeColor=none;align=center;fillColor=none;html=1;verticalAlign=middle;whiteSpace=wrap;rounded=0;" parent="D5WEuP7RKEWB0JZD9iPH-7" vertex="1">
          <mxGeometry width="240" height="56.66666666666667" as="geometry" />
        </mxCell>
        <mxCell id="D5WEuP7RKEWB0JZD9iPH-8" value="" style="fontColor=#0066CC;verticalAlign=top;verticalLabelPosition=bottom;labelPosition=center;align=center;html=1;outlineConnect=0;fillColor=#CCCCCC;strokeColor=#6881B3;gradientColor=none;gradientDirection=north;strokeWidth=2;shape=mxgraph.networks.server;" parent="1" vertex="1">
          <mxGeometry x="322.5" y="-20" width="90" height="100" as="geometry" />
        </mxCell>
        <mxCell id="D5WEuP7RKEWB0JZD9iPH-9" value="Splunk Server" style="text;strokeColor=none;align=center;fillColor=none;html=1;verticalAlign=middle;whiteSpace=wrap;rounded=0;" parent="1" vertex="1">
          <mxGeometry x="337.5" y="-60" width="60" height="30" as="geometry" />
        </mxCell>
        <mxCell id="D5WEuP7RKEWB0JZD9iPH-10" value="" style="endArrow=classic;html=1;rounded=0;" parent="1" edge="1">
          <mxGeometry relative="1" as="geometry">
            <mxPoint x="290" y="280" as="sourcePoint" />
            <mxPoint x="230" y="380" as="targetPoint" />
          </mxGeometry>
        </mxCell>
        <mxCell id="D5WEuP7RKEWB0JZD9iPH-14" value="" style="endArrow=classic;html=1;rounded=0;" parent="1" edge="1">
          <mxGeometry relative="1" as="geometry">
            <mxPoint x="380" y="280" as="sourcePoint" />
            <mxPoint x="380" y="390" as="targetPoint" />
          </mxGeometry>
        </mxCell>
        <mxCell id="D5WEuP7RKEWB0JZD9iPH-18" value="" style="endArrow=classic;html=1;rounded=0;" parent="1" edge="1">
          <mxGeometry relative="1" as="geometry">
            <mxPoint x="460" y="280" as="sourcePoint" />
            <mxPoint x="527.5" y="380" as="targetPoint" />
          </mxGeometry>
        </mxCell>
        <mxCell id="D5WEuP7RKEWB0JZD9iPH-22" value="Deploys&amp;nbsp;" style="swimlane;fontStyle=0;childLayout=stackLayout;horizontal=1;startSize=30;horizontalStack=0;resizeParent=1;resizeParentMax=0;resizeLast=0;collapsible=1;marginBottom=0;whiteSpace=wrap;html=1;" parent="1" vertex="1">
          <mxGeometry x="680" y="160" width="140" height="120" as="geometry" />
        </mxCell>
        <mxCell id="D5WEuP7RKEWB0JZD9iPH-23" value="Snort Rules" style="text;strokeColor=none;fillColor=none;align=left;verticalAlign=middle;spacingLeft=4;spacingRight=4;overflow=hidden;points=[[0,0.5],[1,0.5]];portConstraint=eastwest;rotatable=0;whiteSpace=wrap;html=1;" parent="D5WEuP7RKEWB0JZD9iPH-22" vertex="1">
          <mxGeometry y="30" width="140" height="30" as="geometry" />
        </mxCell>
        <mxCell id="D5WEuP7RKEWB0JZD9iPH-24" value="Sigma Rules" style="text;strokeColor=none;fillColor=none;align=left;verticalAlign=middle;spacingLeft=4;spacingRight=4;overflow=hidden;points=[[0,0.5],[1,0.5]];portConstraint=eastwest;rotatable=0;whiteSpace=wrap;html=1;" parent="D5WEuP7RKEWB0JZD9iPH-22" vertex="1">
          <mxGeometry y="60" width="140" height="30" as="geometry" />
        </mxCell>
        <mxCell id="D5WEuP7RKEWB0JZD9iPH-25" value="Item 3" style="text;strokeColor=none;fillColor=none;align=left;verticalAlign=middle;spacingLeft=4;spacingRight=4;overflow=hidden;points=[[0,0.5],[1,0.5]];portConstraint=eastwest;rotatable=0;whiteSpace=wrap;html=1;" parent="D5WEuP7RKEWB0JZD9iPH-22" vertex="1">
          <mxGeometry y="90" width="140" height="30" as="geometry" />
        </mxCell>
        <mxCell id="D5WEuP7RKEWB0JZD9iPH-26" value="" style="endArrow=none;html=1;rounded=0;" parent="1" edge="1">
          <mxGeometry width="50" height="50" relative="1" as="geometry">
            <mxPoint x="470" y="200" as="sourcePoint" />
            <mxPoint x="670" y="200" as="targetPoint" />
          </mxGeometry>
        </mxCell>
        <mxCell id="D5WEuP7RKEWB0JZD9iPH-31" value="" style="edgeStyle=segmentEdgeStyle;endArrow=classic;html=1;curved=0;rounded=0;endSize=8;startSize=8;" parent="1" edge="1">
          <mxGeometry width="50" height="50" relative="1" as="geometry">
            <mxPoint x="390" y="480" as="sourcePoint" />
            <mxPoint x="320" y="30" as="targetPoint" />
            <Array as="points">
              <mxPoint x="390" y="500" />
              <mxPoint x="67" y="500" />
              <mxPoint x="67" y="30" />
            </Array>
          </mxGeometry>
        </mxCell>
        <mxCell id="D5WEuP7RKEWB0JZD9iPH-33" value="" style="edgeStyle=segmentEdgeStyle;endArrow=classic;html=1;curved=0;rounded=0;endSize=8;startSize=8;" parent="1" edge="1">
          <mxGeometry width="50" height="50" relative="1" as="geometry">
            <mxPoint x="190" y="480" as="sourcePoint" />
            <mxPoint x="320" y="59" as="targetPoint" />
            <Array as="points">
              <mxPoint x="110" y="480" />
              <mxPoint x="110" y="59" />
            </Array>
          </mxGeometry>
        </mxCell>
        <mxCell id="D5WEuP7RKEWB0JZD9iPH-34" value="" style="edgeStyle=segmentEdgeStyle;endArrow=classic;html=1;curved=0;rounded=0;endSize=8;startSize=8;" parent="1" edge="1">
          <mxGeometry width="50" height="50" relative="1" as="geometry">
            <mxPoint x="550" y="490" as="sourcePoint" />
            <mxPoint x="320" y="-10" as="targetPoint" />
            <Array as="points">
              <mxPoint x="550" y="510" />
              <mxPoint x="550" y="530" />
              <mxPoint x="14" y="530" />
              <mxPoint x="14" y="-10" />
            </Array>
          </mxGeometry>
        </mxCell>
      </root>
    </mxGraphModel>
  </diagram>
</mxfile>
